{"title":"(Request) - Psycho (1960) (PSP, iPod, Zune)","uid":5702436,"size":595123749,"categoryP":"other","categoryS":"other","magnet":"?xt=urn:btih:bef3d29513026e366264244711ea7714b2814801&amp;dn=%28Request%29+-+Psycho+%281960%29+%28PSP%2C+iPod%2C+Zune%29&amp;tr=udp%3A%2F%2Ftracker.openbittorrent.com%3A80&amp;tr=udp%3A%2F%2Fopen.demonii.com%3A1337&amp;tr=udp%3A%2F%2Ftracker.coppersurfer.tk%3A6969&amp;tr=udp%3A%2F%2Fexodus.desync.com%3A6969","seeders":0,"leechers":0,"uploader":"The_Day_Walker~1489274146~1489274146My RSS Feed - http:","files":1,"time":1279556660,"description":"This was a request for Mr. S.\n\nSource: I can't remember for sure, but I think I got it from here.\n\nEncoded for PSP &amp; iPod &amp; Zune\n\nResolution: 320 X 240\n\nI have tested this on a PSP Slim 2000 w/ 5.00 M33.6 (custom firmware) &amp; a PSP 1000 5.00 (official Sony)\n\nI haven't tested this on Zune or iPod Touch as I don't have one, but if someone would test it and let me know, it would be nice.\n\nIf you need/want to get in touch with me (request, reseed, etc.). Send an email to &lt;a class=&quot;__cf_email__&quot; href=&quot;/cdn-cgi/l/email-protection&quot; data-cfemail=&quot;dcb1b3aab5efafb8b5aeefbfa89cb4b3a8beb3a4f2aea9&quot;&gt;[email&amp;#160;protected]&lt;/a&gt;&lt;script cf-hash='f9e31' type=&quot;text/javascript&quot;&gt;\n/* &lt;![CDATA[ */!function(){try{var t=&quot;currentScript&quot;in document?document.currentScript:function(){for(var t=document.getElementsByTagName(&quot;script&quot;),e=t.length;e--;)if(t[e].getAttribute(&quot;cf-hash&quot;))return t[e]}();if(t&amp;&amp;t.previousSibling){var e,r,n,i,c=t.previousSibling,a=c.getAttribute(&quot;data-cfemail&quot;);if(a){for(e=&quot;&quot;,r=parseInt(a.substr(0,2),16),n=2;a.length-n;n+=2)i=parseInt(a.substr(n,2),16)^r,e+=String.fromCharCode(i);e=document.createTextNode(e),c.parentNode.replaceChild(e,c)}}}catch(u){}}();/* ]]&gt; */&lt;/script&gt;\n\nPlease seed when finished downloading and leave a comment, request, etc. And above all ENJOY!\n\nIf anyone would like any tv show, movie, music video, or yes, even XXX, for PSP or any other handheld device for that matter. I would be more than happy to do it for you. Just leave a comment or send an email to &lt;a class=&quot;__cf_email__&quot; href=&quot;/cdn-cgi/l/email-protection&quot; data-cfemail=&quot;3e535148570d4d5a574c0d5d4a7e56514a5c5146104c4b&quot;&gt;[email&amp;#160;protected]&lt;/a&gt;&lt;script cf-hash='f9e31' type=&quot;text/javascript&quot;&gt;\n/* &lt;![CDATA[ */!function(){try{var t=&quot;currentScript&quot;in document?document.currentScript:function(){for(var t=document.getElementsByTagName(&quot;script&quot;),e=t.length;e--;)if(t[e].getAttribute(&quot;cf-hash&quot;))return t[e]}();if(t&amp;&amp;t.previousSibling){var e,r,n,i,c=t.previousSibling,a=c.getAttribute(&quot;data-cfemail&quot;);if(a){for(e=&quot;&quot;,r=parseInt(a.substr(0,2),16),n=2;a.length-n;n+=2)i=parseInt(a.substr(n,2),16)^r,e+=String.fromCharCode(i);e=document.createTextNode(e),c.parentNode.replaceChild(e,c)}}}catch(u){}}();/* ]]&gt; */&lt;/script&gt; \n\nI check my email hourly.\n\n\nPsycho (1960)\n\nDirector: Alfred Hitchcock\n\nCast : Janet Leigh, Anthony Perkins, Martin Balsam\n\nSynopsis: Marion Crane,a young woman on the run from the law, stops in at a strange motel, run by Norman Bates. Watch the last shower she ever takes.\n\nReview : This classic film stands the test of time, remaining one of the master directors greatest triumphs. Hitchcock was never rivalled in his time, and continues to remain so to this day.\n\n\nGeneral Nfo\nFormat                           : MPEG-4\nCodec ID                         : M4V \nFile size                        : 568 MiB\nDuration                         : 1h 48mn\nOverall bit rate                 : 732 Kbps\nMovie name                       : Psycho (1960)\nEncoded date                     : 2010\nWriting application              : Lavf52.33.0\n\nVideo\nID                               : 1\nFormat                           : AVC\nFormat/Info                      : Advanced Video Codec\nFormat profile                   : &lt;a class=&quot;__cf_email__&quot; href=&quot;/cdn-cgi/l/email-protection&quot; data-cfemail=&quot;aceecddfc9c0c5c2c9ece09d829f&quot;&gt;[email&amp;#160;protected]&lt;/a&gt;&lt;script cf-hash='f9e31' type=&quot;text/javascript&quot;&gt;\n/* &lt;![CDATA[ */!function(){try{var t=&quot;currentScript&quot;in document?document.currentScript:function(){for(var t=document.getElementsByTagName(&quot;script&quot;),e=t.length;e--;)if(t[e].getAttribute(&quot;cf-hash&quot;))return t[e]}();if(t&amp;&amp;t.previousSibling){var e,r,n,i,c=t.previousSibling,a=c.getAttribute(&quot;data-cfemail&quot;);if(a){for(e=&quot;&quot;,r=parseInt(a.substr(0,2),16),n=2;a.length-n;n+=2)i=parseInt(a.substr(n,2),16)^r,e+=String.fromCharCode(i);e=document.createTextNode(e),c.parentNode.replaceChild(e,c)}}}catch(u){}}();/* ]]&gt; */&lt;/script&gt;\nFormat settings, CABAC           : No\nFormat settings, ReFrames        : 1 frame\nCodec ID                         : avc1\nCodec ID/Info                    : Advanced Video Coding\nDuration                         : 1h 48mn\nBit rate mode                    : Variable\nBit rate                         : 640 Kbps\nWidth                            : 320 pixels\nHeight                           : 240 pixels\nDisplay aspect ratio             : 4:3\nFrame rate mode                  : Constant\nFrame rate                       : 29.970 fps\nColor space                      : YUV\nChroma subsampling               : 4:2:0\nBit depth                        : 8 bits\nScan type                        : Progressive\nBits/(Pixel*Frame)               : 0.278\nStream size                      : 496 MiB (87%)\n\nAudio\nID                               : 2\nFormat                           : AAC\nFormat/Info                      : Advanced Audio Codec\nFormat version                   : Version 4\nFormat profile                   : LC\nFormat settings, SBR             : No\nCodec ID                         : 40\nDuration                         : 1h 48mn\nBit rate mode                    : Variable\nBit rate                         : 87.4 Kbps\nChannel(s)                       : 2 channels\nChannel positions                : Front: L R\nSampling rate                    : 48.0 KHz\nStream size                      : 67.8 MiB (12%)\n\n\n\nMore of my stuff here - http://thepiratebay.se/user/The_Day_Walker\n\nMy RSS Feed - http://rss.thepiratebay.se/user/ee512d573c1dcdf705dd6925ea080014","torrent":{"xt":"urn:btih:bef3d29513026e366264244711ea7714b2814801","amp;dn":"%28Request%29+-+Psycho+%281960%29+%28PSP%2C+iPod%2C+Zune%29","amp;tr":["udp%3A%2F%2Ftracker.openbittorrent.com%3A80","udp%3A%2F%2Fopen.demonii.com%3A1337","udp%3A%2F%2Ftracker.coppersurfer.tk%3A6969","udp%3A%2F%2Fexodus.desync.com%3A6969"],"infoHash":"bef3d29513026e366264244711ea7714b2814801","infoHashBuffer":{"type":"Buffer","data":[190,243,210,149,19,2,110,54,98,100,36,71,17,234,119,20,178,129,72,1]},"announce":[],"urlList":[]}}